<?xml version="1.0" encoding="UTF-8" standalone="no"?>
<!-- Created with Inkscape (http://www.inkscape.org/) -->

<svg
   xmlns:dc="http://purl.org/dc/elements/1.1/"
   xmlns:cc="http://creativecommons.org/ns#"
   xmlns:rdf="http://www.w3.org/1999/02/22-rdf-syntax-ns#"
   xmlns:svg="http://www.w3.org/2000/svg"
   xmlns="http://www.w3.org/2000/svg"
   xmlns:xlink="http://www.w3.org/1999/xlink"
   xmlns:sodipodi="http://sodipodi.sourceforge.net/DTD/sodipodi-0.dtd"
   xmlns:inkscape="http://www.inkscape.org/namespaces/inkscape"
   width="744.09448819"
   height="1052.3622047"
   id="svg2"
   version="1.1"
   inkscape:version="0.47 r22583"
   inkscape:export-filename="/home/smuntwyler/Dropbox/www/css design/background2.png"
   inkscape:export-xdpi="90"
   inkscape:export-ydpi="90"
   sodipodi:docname="drawing-1.svg">
  <defs
     id="defs4">
    <inkscape:perspective
       sodipodi:type="inkscape:persp3d"
       inkscape:vp_x="0 : 526.18109 : 1"
       inkscape:vp_y="0 : 1000 : 0"
       inkscape:vp_z="744.09448 : 526.18109 : 1"
       inkscape:persp3d-origin="372.04724 : 350.78739 : 1"
       id="perspective10" />
    <inkscape:perspective
       id="perspective2884"
       inkscape:persp3d-origin="0.5 : 0.33333333 : 1"
       inkscape:vp_z="1 : 0.5 : 1"
       inkscape:vp_y="0 : 1000 : 0"
       inkscape:vp_x="0 : 0.5 : 1"
       sodipodi:type="inkscape:persp3d" />
  </defs>
  <sodipodi:namedview
     id="base"
     pagecolor="#ffffff"
     bordercolor="#666666"
     borderopacity="1.0"
     inkscape:pageopacity="0.0"
     inkscape:pageshadow="2"
     inkscape:zoom="0.65555556"
     inkscape:cx="375"
     inkscape:cy="520"
     inkscape:document-units="px"
     inkscape:current-layer="layer1"
     showgrid="false"
     inkscape:window-width="695"
     inkscape:window-height="691"
     inkscape:window-x="659"
     inkscape:window-y="24"
     inkscape:window-maximized="0" />
  <metadata
     id="metadata7">
    <rdf:RDF>
      <cc:Work
         rdf:about="">
        <dc:format>image/svg+xml</dc:format>
        <dc:type
           rdf:resource="http://purl.org/dc/dcmitype/StillImage" />
        <dc:title />
      </cc:Work>
    </rdf:RDF>
  </metadata>
  <g
     inkscape:label="Layer 1"
     inkscape:groupmode="layer"
     id="layer1">
    <image
       y="332.36218"
       x="-75"
       id="image2886"
       height="400"
       width="900"
       xlink:href="file:///home/smuntwyler/Dropbox/www/css%20design/background.png" />
    <g
       id="g4138">
      <path
         id="path2890"
         d="m 167.85238,361.69773 c 5.03647,0.0806 10.27031,0.49422 15.625,1.21875 34.27003,4.63697 60.30171,21.23747 58.15625,37.09375 -0.0456,0.33712 -0.11736,0.66906 -0.1875,1 6.76489,6.27109 10.50931,13.29045 10.28125,20.625 -0.74397,23.92619 -43.2573,42.01419 -94.96875,40.40625 -11.59878,-0.36066 -22.67941,-1.67864 -32.87501,-3.78125 -16.48577,5.27444 -38.970069,6.77189 -63.156249,3.1875 -46.535001,-6.89647 -81.65966,-29.93763 -78.46875,-51.46875 2.33077,-15.72724 24.4746794,-26.31995 54.375,-28.1875 12.89373,-7.24321 31.25811,-12.44063 51.875,-13.84375 14.054129,-0.95648 27.283899,-0.006 38.656249,2.40625 9.0785,-5.70596 23.7393,-8.92751 40.68751,-8.65625 z"
         style="fill:#ffffff;fill-opacity:1;stroke:#618fc3;stroke-width:5;stroke-miterlimit:4;stroke-opacity:1;stroke-dasharray:none" />
      <g
         transform="matrix(0.24440772,-0.00188461,0.00188461,0.24440772,21.726241,272.59706)"
         id="g3681">
        <path
           sodipodi:type="inkscape:offset"
           inkscape:radius="4.6728973"
           inkscape:original="M 756.90625 500.53125 C 754.98621 500.53139 753.22571 501.30789 751.59375 502.84375 C 749.96172 504.28388 749.12497 506.55313 749.125 509.625 C 749.12497 514.13712 749.57347 519.15087 750.4375 524.71875 C 751.30146 530.28686 751.71871 534.82535 751.71875 538.28125 C 751.71871 541.64134 751.33046 543.70084 750.5625 544.46875 C 749.12247 545.23684 745.86922 545.98209 740.78125 546.75 C 735.78923 547.51809 731.46048 548.59359 727.8125 549.9375 C 724.16449 551.28159 722.34374 553.25183 722.34375 555.84375 C 722.34374 559.10783 724.40324 560.71883 728.53125 560.71875 C 730.35524 560.71883 733.90748 560.30158 739.1875 559.4375 C 744.56347 558.47758 748.80297 557.91083 751.875 557.71875 C 751.97096 558.10283 752.50871 563.26607 753.46875 573.25 C 754.23671 581.21806 755.04221 588.94955 755.90625 596.4375 C 756.86621 603.82953 757.52221 609.29178 757.90625 612.84375 C 758.29021 616.29977 758.49996 619.73377 758.5 623.09375 C 758.49996 631.34976 759.93246 636.75175 762.8125 639.34375 C 764.06045 640.30375 765.97045 640.78125 768.5625 640.78125 C 772.97844 640.78125 775.18744 638.69275 775.1875 634.46875 C 775.18744 632.64475 774.23244 625.80801 772.3125 614 C 770.39245 602.19203 769.0492 589.53605 768.28125 576 L 767.125 554.09375 L 775.34375 552.8125 C 781.87168 551.18059 786.37893 549.74809 788.875 548.5 C 791.37092 547.25209 792.62492 545.69909 792.625 543.875 C 792.62492 542.62709 791.93767 541.49359 790.59375 540.4375 C 789.24968 539.3816 786.95143 538.84385 783.6875 538.84375 C 781.38343 538.84385 778.04094 539.2321 773.625 540 C 769.30495 540.6721 766.7367 541.06035 765.96875 541.15625 C 765.6807 539.42835 764.96445 533.0401 763.8125 522 C 762.66045 510.86413 761.85495 504.56513 761.375 503.125 C 760.51096 501.39714 759.01821 500.53139 756.90625 500.53125 z M 401.1875 522.28125 C 394.75544 522.28136 388.6662 522.90836 382.90625 524.15625 C 377.24221 525.40436 372.76397 526.80786 369.5 528.34375 C 366.33197 529.78386 363.46698 531.12711 360.875 532.375 C 358.37898 533.6231 356.73673 534.21885 355.96875 534.21875 C 354.04873 534.21885 352.31724 535.5331 350.78125 538.125 C 349.24524 540.6211 348.49999 544.71109 348.5 550.375 C 348.49999 550.95109 348.82799 555.24858 349.5 563.3125 C 350.36399 571.95256 351.14049 582.2813 351.8125 594.28125 C 352.58049 606.18528 353.23649 615.32027 353.8125 621.65625 C 354.38848 627.99226 355.22523 632.051 356.28125 633.875 C 357.91323 636.659 362.50973 638.0625 370.09375 638.0625 C 376.52571 638.0625 383.69046 637.1365 391.5625 635.3125 C 399.53044 633.4885 406.36493 631.04076 412.125 627.96875 C 417.98092 624.89676 420.93742 621.88226 420.9375 618.90625 C 420.93742 617.46627 420.25017 615.97352 418.90625 614.4375 C 417.65817 612.90152 416.22567 612.12502 414.59375 612.125 C 413.34568 612.12502 411.07643 613.05102 407.8125 614.875 C 403.20444 617.17902 397.41419 619.20952 390.40625 620.9375 C 383.39821 622.66551 377.63696 623.50001 373.125 623.5 L 367.0625 623.5 L 366.625 613.28125 C 366.43297 608.76928 366.34372 603.00803 366.34375 596 C 366.34372 595.13604 366.64272 594.50904 367.21875 594.125 C 368.37072 593.45304 374.87721 591.84204 386.78125 589.25 C 398.68519 586.56205 405.76068 584.1433 407.96875 582.03125 C 409.12068 581.07131 409.68743 579.84856 409.6875 578.3125 C 409.68743 577.06456 409.20993 575.89981 408.25 574.84375 C 407.28993 573.78781 405.79718 573.25006 403.78125 573.25 C 400.13319 573.25006 393.4772 574.26531 383.78125 576.28125 C 374.18121 578.29731 368.18122 579.81906 365.78125 580.875 C 365.58922 580.20306 365.20097 577.33806 364.625 572.25 C 364.04897 567.16207 363.51123 562.26657 363.03125 557.5625 C 362.55123 552.85858 362.31248 550.41084 362.3125 550.21875 C 362.31248 548.29884 362.93948 546.77709 364.1875 545.625 C 366.39547 543.70509 370.96297 541.61434 377.875 539.40625 C 384.78695 537.19835 392.39795 535.46685 400.75 534.21875 C 411.11793 532.68285 416.31242 530.62336 416.3125 528.03125 C 416.31242 524.19136 411.26743 522.28136 401.1875 522.28125 z M 121.5 524.15625 C 113.62795 524.15636 109.0002 524.45536 107.65625 525.03125 C 105.1602 525.79936 102.08546 526.66511 98.4375 527.625 C 94.789465 528.58511 91.774968 529.39061 89.375 530.0625 C 86.974972 530.73461 84.527225 531.5111 82.03125 532.375 C 79.63123 533.2391 77.810482 534.1941 76.5625 535.25 C 75.410484 536.2101 74.843735 537.3146 74.84375 538.5625 C 74.843735 541.63459 78.275481 543.15634 85.1875 543.15625 C 88.739471 543.15634 94.411465 542.50034 102.1875 541.15625 L 104.78125 540.71875 L 104.78125 553.25 C 104.7812 563.42607 105.2297 577.15756 106.09375 594.4375 L 107.375 619.0625 L 99.875 621.78125 C 94.306965 623.79726 89.53197 624.81251 85.5 624.8125 C 82.811977 624.81251 80.870729 625.20076 79.71875 625.96875 C 78.566731 626.73676 77.999981 628.22951 78 630.4375 C 77.999981 632.1655 78.716231 633.627 80.15625 634.875 C 81.692228 636.123 83.512976 636.98875 85.625 637.46875 C 87.736972 638.04475 89.52872 638.433 90.96875 638.625 C 92.408717 638.913 93.423966 639.0625 94 639.0625 C 98.511961 639.0625 103.91396 637.929 110.25 635.625 C 120.52194 632.649 127.68668 630.08076 131.71875 627.96875 C 135.84667 625.85676 137.90617 623.40901 137.90625 620.625 C 137.90617 618.80102 137.12967 617.30827 135.59375 616.15625 C 134.15368 615.00427 132.42218 614.43752 130.40625 614.4375 C 128.77418 614.43752 127.19218 614.88602 125.65625 615.75 C 124.21619 610.18203 123.26119 592.21104 122.78125 561.875 L 122.5 539.28125 L 125.21875 539 C 130.11468 538.5201 133.57768 537.7436 135.59375 536.6875 C 137.70567 535.6316 138.78117 533.96035 138.78125 531.65625 C 138.78117 529.44836 137.85517 527.56736 136.03125 526.03125 C 134.39918 524.78336 129.56393 524.15636 121.5 524.15625 z M 212.5 526.875 C 202.32395 526.87511 195.27971 527.74086 191.34375 529.46875 C 184.33572 532.54085 178.00773 537.55685 172.34375 544.46875 C 166.67974 551.28484 163.84374 557.52358 163.84375 563.1875 C 163.84374 567.31557 168.44024 573.16606 177.65625 580.75 C 186.96822 588.23805 194.16196 591.96879 199.25 591.96875 C 201.93795 592.25679 206.32695 593.74954 212.375 596.4375 C 217.07894 598.45354 219.85469 599.88604 220.71875 600.75 C 221.67868 601.61403 222.15618 603.31653 222.15625 605.8125 C 222.15618 609.36453 221.70768 611.81227 220.84375 613.15625 C 219.97969 614.50027 217.68144 616.41027 213.9375 618.90625 C 211.53744 620.44227 209.0897 621.48651 206.59375 622.0625 C 204.0977 622.54251 200.2777 622.78126 195.09375 622.78125 C 189.04572 622.78126 185.34397 622.66301 184 622.375 C 182.75197 621.99101 181.73672 620.97577 180.96875 619.34375 C 180.29672 617.99977 179.96873 616.98452 179.96875 616.3125 C 179.96873 615.92852 180.74522 614.91327 182.28125 613.28125 C 183.91322 611.55327 184.71872 609.73253 184.71875 607.8125 C 184.71872 603.78053 182.83772 601.78128 179.09375 601.78125 C 175.82973 601.78128 173.20348 602.97503 171.1875 605.375 C 169.26749 607.67903 168.31249 610.75378 168.3125 614.59375 C 168.31249 618.91377 169.35674 623.12201 171.46875 627.25 L 175.9375 636.46875 L 191.46875 635.46875 C 206.0607 634.60475 216.23994 632.6345 222 629.5625 C 227.85593 626.49051 232.00617 620.96802 234.40625 613 C 235.27017 610.21603 235.68742 607.58978 235.6875 605.09375 C 235.68742 593.76579 227.15043 585.5568 210.0625 580.46875 C 200.94245 577.78081 193.50996 574.94481 187.75 571.96875 C 182.08597 568.99282 179.24998 566.45582 179.25 564.34375 C 179.24998 558.00783 182.65272 552.09708 189.46875 546.625 C 196.38071 541.1531 203.90245 538.40635 212.0625 538.40625 C 215.13444 538.40635 217.94144 538.88385 220.4375 539.84375 C 222.93343 540.80385 224.84343 541.87934 226.1875 543.03125 C 227.53143 544.08734 228.87468 545.07134 230.21875 546.03125 C 231.56267 546.99134 232.75642 547.46884 233.8125 547.46875 C 235.82842 547.46884 236.84367 545.70834 236.84375 542.15625 C 236.84367 539.18035 234.54542 535.7776 229.9375 531.9375 C 227.44143 529.92161 225.02268 528.57836 222.71875 527.90625 C 220.41468 527.23436 217.01194 526.87511 212.5 526.875 z M -2.90625 530.1875 C -16.922319 530.18761 -32.713303 532.27835 -50.28125 536.40625 C -67.753268 540.53435 -77.544258 544.50384 -79.65625 548.34375 C -79.944256 548.91984 -80.062506 549.63609 -80.0625 550.5 C -80.062506 551.84408 -79.107507 553.09808 -77.1875 554.25 C -75.171511 555.40208 -73.172263 555.96883 -71.15625 555.96875 C -69.332267 555.96883 -67.839518 555.34183 -66.6875 554.09375 C -65.72752 553.32583 -61.876274 552.34183 -55.15625 551.09375 C -50.068286 550.32584 -45.262041 549.31059 -40.75 548.0625 C -36.14205 546.71859 -31.873554 545.76359 -27.9375 545.1875 C -24.001562 544.51559 -18.479067 544.15634 -11.375 544.15625 C -2.5430834 544.15634 2.3814116 544.45534 3.4375 545.03125 C 3.4374106 546.56734 1.8554122 550.05934 -1.3125 555.53125 C -4.3845816 560.90733 -7.1313289 564.75857 -9.53125 567.0625 C -13.467323 570.71057 -17.615318 575.30706 -22.03125 580.875 C -26.44731 586.34705 -29.044557 590.10905 -29.8125 592.125 C -29.908556 592.41304 -29.997806 592.74104 -30.09375 593.125 C -30.093806 593.41304 -30.154056 593.65179 -30.25 593.84375 C -30.250056 594.03579 -30.339306 594.18529 -30.53125 594.28125 C -32.067304 595.14529 -35.113051 599.08579 -39.625 606.09375 C -44.041042 613.10177 -46.33929 617.54877 -46.53125 619.46875 C -46.531289 620.04477 -47.307789 621.38802 -48.84375 623.5 C -50.283786 625.61201 -51.000035 627.25426 -51 628.40625 C -51.000035 631.57425 -48.880287 633.78325 -44.65625 635.03125 C -40.432296 636.27925 -33.954802 636.90625 -25.21875 636.90625 C -16.48282 636.90625 -7.5575784 636.10075 1.5625 634.46875 C 10.682403 632.74075 17.876146 631.81475 23.15625 631.71875 C 27.668136 631.71875 31.191383 631.33051 33.6875 630.5625 C 36.279378 629.69851 38.278626 628.83276 39.71875 627.96875 C 41.158623 627.10476 42.890121 626.68751 44.90625 626.6875 C 47.690116 626.68751 50.108864 625.97126 52.125 624.53125 C 54.14086 622.99526 55.124859 621.05402 55.125 618.75 C 55.124859 614.81402 52.915861 612.84377 48.5 612.84375 C 47.155867 612.84377 45.694368 612.99327 44.0625 613.28125 C 41.086373 613.76127 38.756875 614.29902 37.125 614.875 C 35.588878 615.35502 34.633879 615.74327 34.25 616.03125 C 33.86588 616.31927 32.761381 616.58702 30.9375 616.875 C 29.113385 617.06702 26.188138 617.21652 22.15625 617.3125 C 14.956149 617.60052 8.001156 618.61577 1.28125 620.34375 C -5.4388305 622.07176 -11.528074 622.93751 -17 622.9375 C -19.784066 622.93751 -22.381314 622.75901 -24.78125 622.375 C -27.085309 621.99101 -28.816807 621.60276 -29.96875 621.21875 C -31.024805 620.73877 -31.591554 620.29027 -31.6875 619.90625 L -31.6875 619.625 C -31.015555 616.93702 -26.686809 610.37028 -18.71875 599.90625 C -10.750825 589.3463 -3.1688328 580.03281 4.03125 571.96875 C 7.1991568 568.41682 10.392154 563.61057 13.65625 557.5625 C 16.920147 551.51458 18.562395 546.76859 18.5625 543.3125 C 18.562395 538.4166 16.741647 535.01385 13.09375 533.09375 C 9.4456546 531.17386 4.1016599 530.18761 -2.90625 530.1875 z M 641.71875 553.6875 C 638.55073 553.68758 636.96873 556.16433 636.96875 561.15625 C 636.96873 563.65232 637.56673 570.66757 638.71875 582.1875 C 639.58273 589.57955 640.29898 596.74429 640.875 603.65625 C 641.45098 610.47228 641.80798 615.69577 642 619.34375 C 642.19198 622.89576 642.46198 626.23826 642.75 629.40625 C 643.03798 632.47825 643.36598 634.80775 643.75 636.34375 C 644.22997 637.78375 644.88597 638.9775 645.75 639.9375 C 647.38197 641.76149 648.93497 642.77674 650.375 642.96875 C 650.95097 642.96874 651.45747 642.66974 651.9375 642.09375 C 652.60947 641.13375 653.47522 636.178 654.53125 627.25 C 655.20321 621.68201 656.06896 617.26402 657.125 614 C 658.27696 610.73603 660.54621 605.57278 663.90625 598.46875 C 667.1702 591.74879 671.1397 585.1508 675.84375 578.71875 C 680.64369 572.28681 683.80769 569.09382 685.34375 569.09375 C 685.53568 569.09382 685.83468 569.27232 686.21875 569.65625 C 686.69868 570.04032 687.23643 570.60707 687.8125 571.375 C 688.38843 572.04706 688.86593 572.76331 689.25 573.53125 C 690.11393 575.35531 690.89043 579.83356 691.5625 586.9375 C 692.23443 594.04154 692.56243 601.68378 692.5625 609.84375 C 692.56243 612.81977 692.47318 616.55052 692.28125 621.0625 C 692.08918 625.57451 691.96868 628.56001 691.96875 630 C 691.96868 633.072 692.26768 635.1315 692.84375 636.1875 C 693.41968 637.1475 694.61342 637.625 696.4375 637.625 C 699.12542 637.625 700.91717 636.5205 701.78125 634.3125 C 702.64517 632.0085 703.06242 627.67976 703.0625 621.34375 C 703.06242 619.23177 702.97317 613.29202 702.78125 603.5 C 702.49317 588.04405 701.95542 578.16381 701.1875 573.84375 C 700.51542 569.52382 698.66567 565.19507 695.59375 560.875 C 693.00168 556.93908 689.92693 554.96883 686.375 554.96875 C 680.99894 554.96883 674.40094 560.10308 666.625 570.375 C 662.59296 575.65506 659.81721 579.74506 658.28125 582.625 C 656.84121 585.50505 655.10971 590.07255 653.09375 596.3125 L 651.53125 601.0625 L 649.5 584.625 C 647.67597 568.40107 646.42197 559.23708 645.75 557.125 C 644.98197 554.91708 643.63873 553.78358 641.71875 553.6875 z M 509.75 556.40625 C 507.25392 556.40633 505.13417 557.72058 503.40625 560.3125 C 501.77418 562.90457 500.96868 565.53082 500.96875 568.21875 C 500.96868 569.46682 500.43093 571.49731 499.375 574.28125 C 498.41493 576.96931 496.89318 580.87856 494.78125 586.0625 C 492.76519 591.24655 490.97344 596.05279 489.4375 600.46875 C 487.80544 605.36478 485.56744 610.58828 482.6875 616.15625 C 479.80745 621.62826 477.44895 625.62901 475.625 628.125 C 474.66496 625.91701 472.36671 618.57377 468.71875 606.09375 C 465.07071 593.51779 461.30872 582.53305 457.46875 573.125 C 453.62873 563.71707 450.13673 558.61183 446.96875 557.84375 L 446.8125 557.84375 C 446.23648 557.74783 445.66973 557.71883 445.09375 557.71875 C 443.07774 557.71883 442.06249 558.76308 442.0625 560.875 C 442.06249 563.27507 444.95873 573.60381 450.71875 591.84375 C 451.67873 594.72379 452.81223 598.42554 454.15625 602.9375 C 455.50022 607.35353 456.57572 610.90578 457.34375 613.59375 C 458.20772 616.28177 459.19172 619.32527 460.34375 622.78125 C 461.49572 626.14126 462.57122 628.82776 463.53125 630.84375 C 464.49122 632.85975 465.59571 634.83 466.84375 636.75 C 468.09171 638.67 469.34571 640.0735 470.59375 640.9375 C 471.93771 641.80149 473.37021 642.21874 474.90625 642.21875 C 477.7862 642.21874 481.3987 639.5925 485.71875 634.3125 C 490.03869 628.93651 493.55969 622.69776 496.34375 615.59375 C 503.73568 596.77779 508.66242 583.8228 511.0625 576.71875 C 513.55842 569.51882 514.78117 564.62332 514.78125 562.03125 C 514.78117 560.49533 514.45317 559.30158 513.78125 558.4375 C 513.10917 557.57358 512.45317 557.03583 511.78125 556.84375 C 511.10917 556.55583 510.42192 556.40633 509.75 556.40625 z M 565 557.40625 C 558.56796 557.40633 551.82047 560.69083 544.8125 567.21875 C 537.80448 573.65081 533.29724 579.82931 531.28125 585.78125 C 530.22524 589.1413 529.71874 592.66454 529.71875 596.3125 C 529.71874 609.27253 533.50974 619.42052 541.09375 626.8125 C 548.67772 634.2045 557.15447 637.90625 566.5625 637.90625 C 577.98644 637.90625 589.09168 633.30975 599.84375 624.09375 C 602.62767 621.59776 605.40342 618.34452 608.1875 614.3125 C 610.97141 610.18453 612.37491 606.98928 612.375 604.78125 C 612.37491 602.76528 611.50916 601.78128 609.78125 601.78125 C 608.34116 601.78128 606.01167 603.06428 602.84375 605.65625 C 599.77167 608.15228 596.57868 610.92803 593.21875 614 C 589.95468 617.07202 585.95394 619.90802 581.25 622.5 C 576.54595 624.99601 572.09895 626.25001 567.875 626.25 C 562.59496 626.25001 557.40046 624.13026 552.3125 619.90625 C 548.76047 616.93027 546.16323 614.09427 544.53125 611.40625 C 542.99523 608.71828 542.24998 605.61453 542.25 602.0625 L 542.25 598.3125 L 554.75 597.75 C 564.63796 597.17404 574.25045 595.94904 583.5625 594.125 C 590.66643 592.68504 595.71143 591.10305 598.6875 589.375 C 601.66342 587.64705 603.15617 584.96055 603.15625 581.3125 C 603.15617 578.52856 601.90217 575.33556 599.40625 571.6875 C 596.91018 567.94357 594.13443 565.04732 591.0625 563.03125 C 588.27843 561.20733 585.77044 560.01358 583.5625 559.4375 C 581.45044 558.76558 577.80894 558.22783 572.625 557.84375 C 569.26495 557.55583 566.72796 557.40633 565 557.40625 z M 854.34375 559.28125 L 839.9375 560.59375 C 831.87347 562.32182 825.12823 566.20207 819.65625 572.25 C 814.18424 578.29806 811.43749 583.2538 811.4375 587.09375 C 811.43749 590.9338 813.79599 594.57529 818.5 598.03125 C 823.20398 601.48728 826.99497 603.48653 829.875 604.0625 C 831.69897 604.44653 834.53497 605.43278 838.375 606.96875 C 842.21496 608.40878 845.76721 609.60253 849.03125 610.5625 C 851.0472 611.13853 852.6582 612.03327 853.90625 613.28125 C 855.2502 614.52927 856.08695 615.54452 856.375 616.3125 C 856.66294 616.98452 856.78119 617.52227 856.78125 617.90625 C 856.78119 620.21027 855.1702 623.52376 851.90625 627.84375 C 848.7382 632.06775 845.21496 634.15625 841.375 634.15625 C 838.30296 634.15625 834.98947 633.32175 831.4375 631.59375 C 827.88547 629.76976 825.58723 627.82851 824.53125 625.8125 C 822.70723 622.45251 820.61873 620.78127 818.21875 620.78125 C 816.97073 620.78127 815.89524 621.40827 815.03125 622.65625 C 814.16724 623.80826 813.74999 625.18051 813.75 626.8125 C 813.74999 629.30851 814.55549 631.966 816.1875 634.75 C 817.81948 637.438 819.70048 639.319 821.8125 640.375 C 824.40448 641.52699 828.04597 642.48199 832.75 643.25 C 837.54996 644.11399 841.43021 644.53124 844.40625 644.53125 C 848.5342 644.53124 852.56395 642.79974 856.5 639.34375 C 860.43594 635.98375 863.09344 632.7305 864.4375 629.5625 C 866.06944 625.91451 866.87493 621.82451 866.875 617.3125 C 866.87493 612.12852 864.96494 608.09878 861.125 605.21875 C 857.28494 602.33878 850.32995 599.41354 840.25 596.4375 C 836.60197 595.38154 833.40672 594.18779 830.71875 592.84375 C 828.12672 591.49979 826.27698 590.33505 825.125 589.375 C 824.06898 588.31905 823.53123 587.4243 823.53125 586.65625 C 823.53123 585.5043 824.87448 583.6233 827.5625 581.03125 C 830.25047 578.34331 833.89197 575.80631 838.5 573.40625 C 843.20396 570.91032 847.7112 569.65632 852.03125 569.65625 C 855.1992 569.65632 857.85669 570.82107 859.96875 573.125 C 862.17669 575.33306 864.32544 576.43756 866.4375 576.4375 C 868.93343 576.43756 870.18743 575.21256 870.1875 572.8125 C 870.18743 571.08457 868.54518 568.36907 865.28125 564.625 C 863.26519 562.32107 861.59394 560.88858 860.25 560.3125 C 858.90594 559.64058 856.93569 559.28133 854.34375 559.28125 z M 572.75 567.9375 C 575.14995 567.93757 577.00195 568.20532 578.25 568.78125 C 579.59394 569.35732 581.77169 570.82107 584.84375 573.125 C 589.06768 576.29306 591.18743 578.26331 591.1875 579.03125 C 591.18743 580.85531 589.12793 582.1383 585 582.90625 C 568.48795 586.1703 555.59322 587.81255 546.28125 587.8125 C 545.03403 587.81255 544.29549 587.73896 543.875 587.65625 C 544.01442 585.48785 547.71661 580.84506 555.0625 573.6875 C 557.55846 571.28757 559.88571 569.76582 562.09375 569.09375 C 564.39771 568.32582 567.94995 567.93757 572.75 567.9375 z "
           style="font-size:144px;font-style:normal;font-variant:normal;font-weight:bold;font-stretch:normal;text-align:start;line-height:125%;writing-mode:lr-tb;text-anchor:start;fill:#7eff7e;fill-opacity:1;stroke:none;font-family:Purisa;-inkscape-font-specification:Purisa Bold"
           id="path3679"
           d="m 756.90625,495.84375 c -3.13267,2.3e-4 -6.10542,1.43726 -8.375,3.53125 l -0.0312,-0.0312 c -0.0224,0.0198 -0.0403,0.0425 -0.0625,0.0625 -0.0106,0.01 -0.0207,0.0213 -0.0312,0.0312 -2.79135,2.52774 -3.96879,6.31311 -3.96875,10.1875 -3e-5,4.8218 0.48336,10.06671 1.375,15.8125 0.83992,5.41319 1.21871,9.76393 1.21875,12.84375 -10e-6,1.10649 -0.0524,1.74453 -0.125,2.375 -0.91983,0.26325 -2.75031,0.85566 -6.8125,1.46875 a 4.6733646,4.6733646 0 0 0 -0.0312,0 c -5.23873,0.80605 -9.86069,1.95863 -13.875,3.4375 -2.28238,0.84093 -4.30007,1.95198 -5.90625,3.6875 -1.60618,1.73552 -2.62501,4.20359 -2.625,6.59375 -10e-6,2.61484 1.11849,5.59365 3.34375,7.34375 2.22526,1.7501 4.85935,2.2188 7.53125,2.21875 2.53689,1.1e-4 6.03319,-0.46444 11.40625,-1.34375 A 4.6733646,4.6733646 0 0 0 740,564.03125 c 3.36068,-0.60008 5.37747,-0.77945 7.75,-1.0625 0.26151,2.55403 0.60827,5.99496 1.0625,10.71875 0.7702,7.99133 1.56938,15.75796 2.4375,23.28125 a 4.6733646,4.6733646 0 0 0 0.0312,0.0625 c 0.95711,7.3701 1.59081,12.81692 1.96875,16.3125 a 4.6733646,4.6733646 0 0 0 0,0.0312 c 0.36707,3.30401 0.56246,6.55321 0.5625,9.71875 -4e-5,8.79655 1.16804,15.48254 5.875,19.71875 a 4.6733646,4.6733646 0 0 0 0.28125,0.25 c 2.48077,1.90836 5.42781,2.40625 8.59375,2.40625 2.94465,0 5.95294,-0.74996 8.1875,-2.875 2.23456,-2.12504 3.12496,-5.19843 3.125,-8.125 -6e-5,-1.72734 -0.29443,-3.65425 -0.78125,-7.125 -0.48682,-3.47075 -1.19305,-8.16988 -2.15625,-14.09375 -1.89057,-11.62665 -3.24017,-24.10715 -4,-37.5 L 772,558.0625 l 4.0625,-0.625 a 4.6733646,4.6733646 0 0 0 0.40625,-0.0937 c 6.66115,-1.66521 11.27056,-3.04146 14.5,-4.65625 3.32297,-1.66142 6.34358,-4.84689 6.34375,-8.8125 -1.9e-4,-2.96337 -1.83115,-5.54344 -3.84375,-7.125 -2.77288,-2.17838 -6.00413,-2.59363 -9.78125,-2.59375 -2.80475,1.2e-4 -6.29162,0.4722 -10.78125,1.25 l 0,-0.0312 c -0.0551,0.009 -0.0391,0.0228 -0.0937,0.0312 -1.55817,0.24225 -1.65079,0.23902 -2.75,0.40625 -0.34873,-2.84106 -0.7241,-5.94854 -1.59375,-14.28125 -0.001,-0.0131 0.001,-0.0182 0,-0.0312 -0.57646,-5.57041 -1.08662,-9.94737 -1.5,-13.15625 -0.41435,-3.2164 -0.51808,-4.77261 -1.15625,-6.6875 a 4.6733646,4.6733646 0 0 0 -0.25,-0.625 c -1.54771,-3.09502 -5.2674,-5.18728 -8.65625,-5.1875 z m -355.71875,21.75 c -6.73569,1.2e-4 -13.1718,0.67639 -19.28125,2 -5.84768,1.28858 -10.59126,2.74209 -14.34375,4.5 -0.0191,0.009 -0.0434,0.0223 -0.0625,0.0312 -3.17079,1.44196 -6.0516,2.77726 -8.65625,4.03125 a 4.6733646,4.6733646 0 0 0 -0.0625,0.0312 c -1.14735,0.57372 -2.04306,0.97071 -2.625,1.1875 -0.58194,0.21679 -1.01226,0.15614 -0.1875,0.15625 -4.02211,2.1e-4 -7.18489,2.86676 -9.15625,6.15625 -0.0148,0.0247 -0.0478,0.0378 -0.0625,0.0625 l 0.0312,0 c -2.34611,3.85132 -2.96876,8.58242 -2.96875,14.625 -2e-5,1.17509 0.11394,1.85985 0.28125,4.03125 0.16731,2.1714 0.41351,5.24353 0.75,9.28125 a 4.6733646,4.6733646 0 0 0 0,0.0937 c 0.85488,8.549 1.64336,18.80123 2.3125,30.75 a 4.6733646,4.6733646 0 0 0 0,0.0625 c 0.76911,11.92137 1.41629,21.07929 2,27.5 0.59663,6.56319 1.06796,10.62598 3.09375,14.125 a 4.6733646,4.6733646 0 0 0 0,0.0312 c 1.61068,2.74766 4.36192,4.31314 7.34375,5.21875 2.98183,0.90561 6.41973,1.28125 10.5,1.28125 6.8716,0 14.37148,-0.99351 22.5,-2.875 0.0102,-0.002 0.021,0.002 0.0312,0 8.26412,-1.89406 15.46445,-4.48233 21.65625,-7.78125 0.009,-0.004 0.0227,0.004 0.0312,0 3.18645,-1.67351 5.75214,-3.38735 7.75,-5.4375 2.00321,-2.05563 3.56242,-4.71462 3.5625,-7.75 -1.6e-4,-2.87106 -1.33273,-5.35682 -3.09375,-7.40625 -0.009,-0.0112 -0.0221,-0.0201 -0.0312,-0.0312 -0.0247,-0.0286 -0.0376,-0.0653 -0.0625,-0.0937 l -0.0312,0.0312 c -1.87019,-2.23726 -4.75197,-3.96871 -7.8125,-3.96875 -3.48603,6e-5 -5.52323,1.36712 -8.875,3.25 -0.0705,0.0396 -0.11581,0.0537 -0.1875,0.0937 -4.168,2.063 -9.57731,3.97968 -16.25,5.625 -6.76958,1.66921 -12.22048,2.40626 -16.15625,2.40625 l -1.59375,0 -0.25,-5.71875 c -0.16792,-3.94559 -0.20196,-9.30578 -0.21875,-15.3125 0.81021,-0.23121 1.71301,-0.51577 3.03125,-0.84375 3.17617,-0.79023 7.75919,-1.83414 13.6875,-3.125 a 4.6733646,4.6733646 0 0 0 0.0312,0 c 6.05169,-1.36649 10.9307,-2.67705 14.71875,-3.96875 3.65786,-1.24731 6.19686,-2.23748 8.40625,-4.25 l 0.0312,0.0312 c 0.0455,-0.0379 0.049,-0.11725 0.0937,-0.15625 0.0346,-0.0324 0.0905,-0.0295 0.125,-0.0625 l -0.0312,-0.0312 c 1.93874,-1.74464 3.21863,-4.4787 3.21875,-7.0625 -1.4e-4,-2.43977 -1.06483,-4.87421 -2.65625,-6.625 -2.05073,-2.25551 -5.09064,-3.12492 -7.9375,-3.125 -4.51494,7e-5 -11.13039,1.1172 -20.9375,3.15625 a 4.6733646,4.6733646 0 0 0 -0.0312,0 c -5.78998,1.21593 -9.82211,2.1583 -13.15625,3.0625 -0.12259,-1.00912 -0.22592,-1.74554 -0.375,-3.0625 -0.57491,-5.07802 -1.11631,-9.94586 -1.59375,-14.625 -0.23964,-2.34836 -0.41275,-4.13199 -0.53125,-5.34375 -0.0593,-0.60588 -0.12822,-1.06549 -0.15625,-1.375 -0.028,-0.30951 10e-5,-1.07726 0,-0.15625 -10e-6,-0.85769 0.0689,-0.84556 0.34375,-1.09375 1.12517,-0.94606 5.37466,-3.17473 11.96875,-5.28125 6.63936,-2.12083 13.98734,-3.78394 22.125,-5 5.37156,-0.79574 9.50068,-1.69017 12.71875,-2.96875 1.60903,-0.63929 3.02157,-1.37439 4.3125,-2.53125 1.29093,-1.15686 2.53118,-3.10377 2.53125,-5.3125 -4e-5,-1.9832 -0.81527,-4.10002 -2.125,-5.59375 -1.30973,-1.49373 -2.94308,-2.43127 -4.6875,-3.09375 -3.48884,-1.32497 -7.66489,-1.74994 -13,-1.75 z m -279.6875,1.875 c -3.99517,6e-5 -7.18124,0.0927 -9.65625,0.25 -2.26374,0.14388 -3.6473,0.19835 -5.53125,0.90625 l -0.0312,-0.0625 c -2.4084,0.74114 -5.42708,1.58288 -9.03125,2.53125 -3.657402,0.96258 -6.680484,1.78439 -9.125,2.46875 -2.505519,0.70165 -5.054539,1.51657 -7.625,2.40625 a 4.6733646,4.6733646 0 0 0 -0.0625,0 c -2.7082,0.97506 -4.983232,2.09614 -6.875,3.6875 -0.01086,0.009 -0.02042,0.0221 -0.03125,0.0312 -1.911002,1.60839 -3.375032,4.22723 -3.375,6.875 -1.6e-5,3.27604 2.592784,6.48361 5.375,7.71875 2.782216,1.23514 5.857302,1.56255 9.65625,1.5625 3.552047,9e-5 8.610629,-0.64074 14.90625,-1.65625 l 0,7.0625 c -5e-5,10.31339 0.47756,24.08354 1.34375,41.40625 a 4.6733646,4.6733646 0 0 0 0,0.0312 l 1.09375,21.15625 -4.25,1.53125 c -5.236129,1.89584 -9.533713,2.75001 -12.78125,2.75 -3.137974,10e-6 -5.811823,0.25996 -8.375,1.96875 -2.888733,1.92582 -3.812526,5.33611 -3.8125,8.34375 -3.3e-5,3.0193 1.556294,6.04048 3.78125,7.96875 a 4.6733646,4.6733646 0 0 0 0.125,0.0937 c 2.067492,1.67986 4.531507,2.83695 7.1875,3.46875 0.06462,0.0154 0.122654,0.0478 0.1875,0.0625 l 0,-0.0312 c 2.051755,0.55379 3.834345,0.95454 5.46875,1.1875 l 0,0.0312 c 0.110309,0.0221 0.176042,0.0102 0.28125,0.0312 1.372368,0.27509 2.370285,0.5 3.65625,0.5 5.2148,0 11.0116,-1.26802 17.5625,-3.625 0.10022,-0.0361 0.18067,-0.0572 0.28125,-0.0937 10.20631,-2.96625 17.38027,-5.49164 22,-7.90625 0.01,-0.005 0.0215,-0.0261 0.0312,-0.0312 4.85187,-2.49273 8.7186,-6.39381 8.71875,-11.46875 -1.4e-4,-3.10553 -1.6696,-6.25334 -4.09375,-8.125 -0.0348,-0.0269 -0.0587,-0.0674 -0.0937,-0.0937 l -0.0312,0.0312 c -2.26666,-1.76805 -5.12363,-2.68747 -7.96875,-2.6875 -0.30803,0 -0.60062,0.10352 -0.90625,0.125 -0.34592,-2.97244 -0.68951,-6.79305 -0.96875,-12.03125 -0.4735,-8.88229 -0.82307,-20.89765 -1.0625,-36.03125 L 127.25,543.4375 c 4.25895,-0.48752 7.65349,-1.17193 10.40625,-2.59375 l 0.0312,0.0312 c 0.0257,-0.0129 0.0369,-0.0494 0.0625,-0.0625 3.26948,-1.67421 5.71862,-5.42734 5.71875,-9.15625 -1.3e-4,-3.51435 -1.772,-6.94261 -4.4375,-9.1875 A 4.6733646,4.6733646 0 0 0 138.875,522.3125 c -2.28491,-1.74705 -4.34676,-1.95761 -7.09375,-2.3125 -2.74699,-0.35489 -6.12819,-0.53119 -10.28125,-0.53125 z m 91,2.71875 c -10.44106,1.1e-4 -17.74231,0.67815 -23.03125,3 -7.76145,3.40237 -14.68251,8.92422 -20.71875,16.28125 -0.01,0.0116 -0.0217,0.0196 -0.0312,0.0312 -6.05182,7.29225 -9.56251,14.47531 -9.5625,21.6875 -1e-5,3.79842 1.83734,7.02832 4.46875,10.375 2.63141,3.34668 6.29358,6.85686 11.0625,10.78125 a 4.6733646,4.6733646 0 0 0 0.0312,0.0625 c 9.42264,7.57704 16.81599,11.99224 24.03125,12.1875 l 0,0.0312 c 1.52311,0.16322 5.85067,1.48577 11.71875,4.09375 a 4.6733646,4.6733646 0 0 0 0.0625,0 c 2.28953,0.98126 4.08599,1.83506 5.3125,2.46875 1.22651,0.63369 1.98653,1.29898 1.5625,0.875 a 4.6733646,4.6733646 0 0 0 0.1875,0.15625 c -0.73598,-0.66245 -0.12505,-0.3063 -0.125,1.59375 -6e-5,3.15872 -0.69629,5.02063 -0.5625,4.8125 0.0845,-0.13142 -1.9916,1.99238 -5.5,4.34375 -1.97264,1.26247 -3.8919,2.04866 -5.8125,2.5 -1.92825,0.36066 -5.51863,0.62501 -10.5,0.625 -5.76554,10e-6 -9.55674,-0.28147 -9.75,-0.28125 0.14301,0.0836 0.18567,0.25787 -0.15625,-0.46875 a 4.6733646,4.6733646 0 0 0 -0.0312,-0.0937 c -0.0285,-0.057 -0.0371,-0.07 -0.0625,-0.125 0.20848,-0.23536 0.3152,-0.32858 0.59375,-0.625 0.008,-0.008 -0.008,-0.0232 0,-0.0312 2.22004,-2.35878 3.7187,-5.43799 3.71875,-8.65625 -2e-5,-2.74265 -0.68712,-5.57859 -2.6875,-7.71875 -2.00038,-2.14016 -4.92126,-2.99998 -7.625,-3 -4.40334,4e-5 -8.65807,1.93521 -11.46875,5.28125 a 4.6733646,4.6733646 0 0 0 -0.0312,0 c -2.74107,3.28931 -3.96876,7.60401 -3.96875,12.21875 -1e-5,5.04076 1.27221,9.99568 3.65625,14.6875 l -0.0312,0 0.0625,0.0937 4.40625,9.125 a 4.6733646,4.6733646 0 0 0 4.53125,2.625 l 15.5,-1 c 0.0112,-6.6e-4 0.0201,6.6e-4 0.0312,0 14.84799,-0.88094 25.33534,-2.69157 32.375,-6.4375 0.008,-0.004 0.0236,0.004 0.0312,0 7.07173,-3.7189 12.03109,-10.51457 14.6875,-19.3125 0.003,-0.01 -0.003,-0.0216 0,-0.0312 0.97812,-3.16123 1.4999,-6.24285 1.5,-9.25 -5e-5,-6.83784 -2.79895,-13.18256 -7.84375,-18.03125 -5.0448,-4.84869 -12.12626,-8.38306 -21.125,-11.0625 a 4.6733646,4.6733646 0 0 0 -0.0312,0 c -8.90759,-2.62532 -16.06196,-5.38262 -21.4375,-8.15625 -0.0176,-0.009 -0.0137,-0.022 -0.0312,-0.0312 -2.6044,-1.37207 -4.47358,-2.63267 -5.40625,-3.46875 -0.36035,-0.32303 -0.42974,-0.43031 -0.5,-0.53125 0.17428,-4.4678 2.49677,-8.80663 8.375,-13.53125 0.007,-0.006 0.0242,0.006 0.0312,0 6.20837,-4.90863 12.5529,-7.18741 19.65625,-7.1875 2.5878,8e-5 4.80234,0.40003 6.6875,1.125 2.15012,0.82708 3.63184,1.7113 4.40625,2.375 a 4.6733646,4.6733646 0 0 0 0.15625,0.125 c 1.42456,1.11945 2.81261,2.14308 4.1875,3.125 1.81261,1.29492 3.84757,2.31271 6.3125,2.3125 2.36827,1.1e-4 5.13964,-1.63742 6.3125,-3.6875 1.17286,-2.05008 1.4062,-4.09127 1.40625,-6.3125 -1.4e-4,-5.38168 -3.52993,-9.59247 -8.59375,-13.8125 a 4.6733646,4.6733646 0 0 0 -0.0625,-0.0312 c -2.85465,-2.30549 -5.77704,-4.01162 -8.84375,-4.90625 -3.06134,-0.89272 -6.77132,-1.21863 -11.53125,-1.21875 z M -2.90625,525.5 c -14.480737,1.1e-4 -30.604592,2.15359 -48.4375,6.34375 -8.872104,2.09621 -15.884098,4.17125 -21.15625,6.3125 -5.272152,2.14125 -9.052184,3.94155 -11.25,7.9375 a 4.6733646,4.6733646 0 0 0 -0.09375,0.15625 c -0.751969,1.50414 -0.906259,2.95966 -0.90625,4.25 -1.6e-5,3.55756 2.539483,6.18005 5.15625,7.75 a 4.6733646,4.6733646 0 0 0 0.09375,0.0625 c 2.598294,1.48485 5.451838,2.34386 8.34375,2.34375 2.658492,1.2e-4 5.339482,-1.16367 7.3125,-3 l 0.0625,0.0937 c -1.140043,0.91196 0.138059,0.0124 1.875,-0.4375 1.701304,-0.44063 4.233842,-0.99597 7.4375,-1.59375 0.05478,-0.008 0.101528,-0.0229 0.15625,-0.0312 5.199181,-0.79087 10.155243,-1.83674 14.8125,-3.125 a 4.6733646,4.6733646 0 0 0 0.0625,0 c 4.434543,-1.29334 8.504651,-2.21097 12.1875,-2.75 a 4.6733646,4.6733646 0 0 0 0.09375,-0.0312 c 3.493577,-0.59639 8.83469,-0.93741 15.78125,-0.9375 3.588471,4e-5 6.0438084,0.0617 8.25,0.15625 -0.6496419,1.27632 -1.1990995,2.42627 -2.21875,4.1875 a 4.6733646,4.6733646 0 0 0 -0.03125,0.0312 c -2.9283809,5.12461 -5.537065,8.65404 -7.34375,10.40625 -0.01565,0.0152 -0.04697,0.0476 -0.0625,0.0625 -4.142811,3.84732 -8.384516,8.5908 -12.875,14.25 -0.0097,0.0122 -0.02155,0.019 -0.03125,0.0312 -4.490996,5.56557 -7.176057,9.02448 -8.5,12.5 a 4.6733646,4.6733646 0 0 0 -0.0625,0.1875 c -0.103089,0.30913 -0.173323,0.58779 -0.25,0.875 -1.10652,0.96813 -2.030268,2.03885 -3.15625,3.5 -1.650633,2.14197 -3.607002,4.96006 -5.90625,8.53125 a 4.6733646,4.6733646 0 0 0 -0.03125,0.0312 c -2.250767,3.57185 -3.967109,6.51404 -5.21875,8.9375 -1.251641,2.42346 -2.130895,4.02722 -2.375,6.46875 0.03341,-0.01 0.144729,-0.60369 0.03125,-0.40625 -0.24432,0.42509 -0.757626,1.17844 -1.46875,2.15625 a 4.6733646,4.6733646 0 0 0 -0.09375,0.125 c -1.668911,2.44769 -2.968844,4.44221 -2.96875,7.53125 -2.9e-5,2.62624 1.077009,5.34068 2.90625,7.25 1.829241,1.90932 4.185702,3.06766 6.8125,3.84375 5.061048,1.49533 11.790361,2.09375 20.75,2.09375 9.023174,0 18.2157498,-0.8531 27.59375,-2.53125 a 4.6733646,4.6733646 0 0 0 0.0625,0 c 8.931032,-1.69221 15.909795,-2.56093 20.71875,-2.65625 0.03423,0 0.05962,4e-5 0.09375,0 4.732815,-0.005 8.581475,-0.38087 11.8125,-1.375 A 4.6733646,4.6733646 0 0 0 35.15625,635 c 2.796414,-0.93217 5.073448,-1.89415 6.96875,-3.03125 0.591793,-0.3551 1.409831,-0.59374 2.78125,-0.59375 3.58539,10e-6 7.079314,-0.98981 9.9375,-3.03125 a 4.6733646,4.6733646 0 0 0 0.125,-0.0937 c 2.942476,-2.24203 4.843528,-5.86568 4.84375,-9.5 -1.02e-4,-2.84216 -0.959997,-5.89232 -3.21875,-7.90625 -2.258753,-2.01393 -5.190845,-2.68749 -8.09375,-2.6875 -1.670653,2e-5 -3.381854,0.21539 -5.1875,0.53125 l 0,-0.0312 c -0.02681,0.004 -0.03578,0.0269 -0.0625,0.0312 -3.039462,0.49274 -5.486636,1.04125 -7.53125,1.75 l 0,-0.0312 c -0.0639,0.02 -0.09468,0.0438 -0.15625,0.0625 -1.571285,0.47631 -2.443798,0.55129 -4.125,1.8125 0.971792,-0.72867 0.881553,-0.45529 0.5625,-0.375 -0.280236,0.0705 -0.874122,0.19853 -1.5625,0.3125 -0.01155,0.001 -0.0508,-0.001 -0.0625,0 -1.565798,0.16265 -4.402956,0.34369 -8.34375,0.4375 a 4.6733646,4.6733646 0 0 0 -0.0625,0 C 14.45052,612.957 7.1705193,614.00079 0.125,615.8125 c -6.4252742,1.6522 -12.145967,2.43751 -17.125,2.4375 -2.584321,10e-6 -4.927609,-0.1634 -7.03125,-0.5 l 0,0.0312 c -0.616617,-0.10319 -0.76659,-0.17916 -1.28125,-0.28125 0.506035,-0.92743 0.436787,-0.96674 1.28125,-2.25 2.063124,-3.13515 5.085559,-7.31833 9.03125,-12.5 a 4.6733646,4.6733646 0 0 0 0,-0.0312 c 7.9051332,-10.47673 15.43619969,-19.67858 22.53125,-27.625 3.52349,-3.95062 6.872403,-9.05412 10.25,-15.3125 3.438012,-6.37055 5.4686,-11.53249 5.46875,-16.46875 -1.3e-4,-6.0544 -2.874386,-11.66229 -7.96875,-14.34375 C 10.552475,526.48013 4.5400458,525.50012 -2.90625,525.5 z m 644.625,23.5 c -2.80174,7e-5 -5.94884,1.59488 -7.5,4.03125 -1.55116,2.43637 -1.93751,5.1354 -1.9375,8.125 -3e-5,3.24248 0.62647,9.95248 1.78125,21.5 a 4.6733646,4.6733646 0 0 0 0,0.0625 c 0.85813,7.34202 1.58466,14.45369 2.15625,21.3125 a 4.6733646,4.6733646 0 0 0 0,0.0312 c 0.57275,6.77786 0.93665,11.95305 1.125,15.53125 0.1962,3.63003 0.45899,7.0491 0.75,10.25 0.29827,3.18172 0.62319,5.61788 1.125,7.625 a 4.6733646,4.6733646 0 0 0 0.0937,0.34375 c 0.63888,1.91677 1.6029,3.73244 2.96875,5.25 2.0397,2.27969 4.32597,4.1122 7.46875,4.53125 a 4.6733646,4.6733646 0 0 0 0.625,0.0625 c 2.19313,-4e-5 4.15043,-1.35561 5.15625,-2.5625 a 4.6733646,4.6733646 0 0 0 0.25,-0.3125 c 0.98078,-1.40118 0.97416,-2.02799 1.21875,-2.96875 0.24459,-0.94076 0.45803,-2.03047 0.6875,-3.34375 0.45893,-2.62657 0.93508,-6.14448 1.46875,-10.65625 0.64219,-5.32134 1.48121,-9.45013 2.375,-12.25 1.02392,-2.90119 3.26979,-8.03336 6.59375,-15.0625 0.006,-0.0122 -0.006,-0.019 0,-0.0312 3.13039,-6.44119 6.94128,-12.77385 11.46875,-18.96875 0.0117,-0.0157 0.0195,-0.0156 0.0312,-0.0312 2.15792,-2.88905 3.86177,-4.89641 5.15625,-6.25 0.0757,0.12428 0.18426,0.24582 0.25,0.375 0.006,0.0124 0.025,0.0188 0.0312,0.0312 0.0909,0.25677 1.19548,4.89765 1.84375,11.75 0.65577,6.93319 0.96868,14.43398 0.96875,22.46875 -7e-5,2.88269 -0.0601,6.56709 -0.25,11.03125 -0.19226,4.51655 -0.34383,7.42401 -0.34375,9.125 -8e-5,3.37526 -0.005,5.73594 1.46875,8.4375 a 4.6733646,4.6733646 0 0 0 0.0937,0.15625 c 1.6897,2.81651 4.95417,3.71875 7.59375,3.71875 3.96802,0 8.21723,-2.5555 9.6875,-6.3125 a 4.6733646,4.6733646 0 0 0 0.0312,-0.0312 c 1.36581,-3.64249 1.59367,-8.08387 1.59375,-14.625 -8e-5,-2.2433 -0.0892,-8.13684 -0.28125,-17.9375 -0.28822,-15.46341 -0.77802,-25.10655 -1.6875,-30.28125 l 0.0312,0 c -0.005,-0.0321 -0.0262,-0.0617 -0.0312,-0.0937 -0.80288,-5.04963 -2.95217,-9.99605 -6.28125,-14.71875 -0.008,-0.0125 -0.023,-0.0188 -0.0312,-0.0312 -0.0279,-0.0395 -0.0344,-0.0855 -0.0625,-0.125 l -0.0312,0 c -3.13139,-4.66259 -7.78332,-7.87488 -13,-7.875 -8.3413,1.2e-4 -15.35808,6.5836 -23.4375,17.25 -0.01,0.0126 -0.0217,0.0186 -0.0312,0.0312 -4.10132,5.37198 -6.98097,9.55805 -8.75,12.875 a 4.6733646,4.6733646 0 0 0 -0.0625,0.0937 c -0.0937,0.18744 -0.18688,0.49117 -0.28125,0.6875 -0.74099,-6.46433 -1.46092,-12.33147 -2,-16.28125 -0.63423,-4.64697 -0.95165,-7.10233 -1.625,-9.21875 a 4.6733646,4.6733646 0 0 0 -0.0312,-0.125 c -1.16044,-3.33601 -4.57515,-6.38017 -8.21875,-6.5625 A 4.6733646,4.6733646 0 0 0 641.71875,549 z M 509.75,551.71875 c -4.13626,1.3e-4 -7.91683,2.54707 -10.21875,6 a 4.6733646,4.6733646 0 0 0 -0.0937,0.0937 c -2.02098,3.20974 -3.15634,6.78468 -3.15625,10.40625 10e-6,-0.0939 -0.30595,1.83489 -1.28125,4.40625 a 4.6733646,4.6733646 0 0 0 -0.0312,0.0937 c -0.91668,2.56657 -2.40185,6.44364 -4.5,11.59375 a 4.6733646,4.6733646 0 0 0 -0.0312,0.0625 c -2.0307,5.2217 -3.84549,10.07517 -5.40625,14.5625 A 4.6733646,4.6733646 0 0 0 485,599 c -1.53837,4.61497 -3.66145,9.59745 -6.4375,14.96875 -0.007,0.013 -0.0245,0.0182 -0.0312,0.0312 -0.67235,1.27665 -0.98253,1.61394 -1.59375,2.71875 -1.18596,-3.71708 -1.69577,-5.01669 -3.71875,-11.9375 -3.68468,-12.70226 -7.52014,-23.83984 -11.4375,-33.4375 -1.99554,-4.889 -3.91069,-8.75138 -5.96875,-11.75 -2.05806,-2.99862 -4.24407,-5.43123 -7.75,-6.28125 a 4.6733646,4.6733646 0 0 0 -0.46875,-0.0937 c -0.28616,-0.0476 -0.51109,-0.0352 -0.78125,-0.0625 -0.59403,-0.0601 -1.21531,-0.12493 -1.71875,-0.125 -1.81479,7e-5 -4.03823,0.5716 -5.625,2.21875 -1.58677,1.64715 -2.09376,3.82025 -2.09375,5.625 -10e-6,1.53985 0.29794,2.59828 0.6875,4.3125 0.38956,1.71422 0.9217,3.87414 1.65625,6.5 1.46911,5.25173 3.64269,12.41547 6.53125,21.5625 a 4.6733646,4.6733646 0 0 0 0.0312,0.0625 c 0.92908,2.78734 2.06781,6.47552 3.40625,10.96875 a 4.6733646,4.6733646 0 0 0 0,0.0312 c 1.34292,4.41258 2.40604,7.93688 3.15625,10.5625 a 4.6733646,4.6733646 0 0 0 0.0625,0.15625 c 0.86583,2.69379 1.84014,5.73927 3,9.21875 a 4.6733646,4.6733646 0 0 0 0.0312,0.0312 c 1.19352,3.48121 2.30458,6.3147 3.375,8.5625 1.05003,2.20514 2.26742,4.34898 3.625,6.4375 1.4604,2.24684 3.00918,4.12179 5,5.5 a 4.6733646,4.6733646 0 0 0 0.125,0.0937 c 2.03883,1.3107 4.4615,2.03123 6.84375,2.03125 5.72076,-2e-5 9.78987,-3.94462 14.4375,-9.625 a 4.6733646,4.6733646 0 0 0 0.0312,-0.0312 c 4.64906,-5.78557 8.37919,-12.45265 11.3125,-19.9375 7.39333,-18.81952 12.30954,-31.74958 14.78125,-39.0625 0.002,-0.007 0.0289,-0.0242 0.0312,-0.0312 l -0.0312,0 c 2.5486,-7.35399 3.99987,-12.13223 4,-16.1875 -1.1e-4,-2.20107 -0.50019,-4.54002 -2,-6.46875 -0.89849,-1.15495 -2.12,-2.26949 -3.875,-2.9375 l 0.0312,-0.0625 c -0.0775,-0.0332 -0.17148,-0.0311 -0.25,-0.0625 -0.11904,-0.0405 -0.18783,-0.12061 -0.3125,-0.15625 l -0.0312,0.0937 c -1.04056,-0.37739 -2.12536,-0.71861 -3.28125,-0.71875 z m 55.25,1 c -8.01087,10e-5 -15.82351,4.067 -23.34375,11.0625 -0.0112,0.0104 -0.02,0.0208 -0.0312,0.0312 -7.35247,6.7546 -12.40522,13.45384 -14.78125,20.46875 a 4.6733646,4.6733646 0 0 0 -0.0312,0.0937 c -1.20801,3.84368 -1.78126,7.85699 -1.78125,11.9375 -10e-6,13.87129 4.25506,25.50299 12.8125,33.84375 8.2719,8.06252 18.08497,12.4375 28.71875,12.4375 12.67739,0 24.93622,-5.18646 36.3125,-14.9375 a 4.6733646,4.6733646 0 0 0 0.0937,-0.0937 c 3.13707,-2.81262 6.12104,-6.3338 9.0625,-10.59375 a 4.6733646,4.6733646 0 0 0 0.0312,-0.0312 c 3.00184,-4.45112 4.99983,-7.96823 5,-12.15625 -7e-5,-1.67687 -0.36337,-3.64367 -1.8125,-5.3125 -1.44913,-1.66883 -3.71778,-2.37497 -5.46875,-2.375 -4.20645,9e-5 -6.43561,2.12223 -9.875,4.9375 -0.007,0.006 -0.0239,-0.006 -0.0312,0 l 0,0.0312 c -3.14812,2.55906 -6.4106,5.38966 -9.8125,8.5 a 4.6733646,4.6733646 0 0 0 -0.0312,0.0312 c -2.90734,2.73628 -6.57455,5.35416 -10.96875,7.78125 -0.009,0.005 -0.0218,-0.005 -0.0312,0 -0.0133,0.007 -0.0179,0.0239 -0.0312,0.0312 -4.17102,2.20261 -7.84382,3.15626 -11.125,3.15625 -4.02937,10e-6 -8.08605,-1.53366 -12.5625,-5.25 -3.27457,-2.74352 -5.49893,-5.26378 -6.75,-7.3125 -0.006,-0.0105 -0.0249,-0.0208 -0.0312,-0.0312 C 547.57877,607.25748 547.09037,605.22756 547,602.75 l 7.96875,-0.34375 a 4.6733646,4.6733646 0 0 0 0.0625,0 c 10.09644,-0.5881 19.91744,-1.82272 29.4375,-3.6875 a 4.6733646,4.6733646 0 0 0 0.0312,0 c 7.33485,-1.48677 12.64302,-3.05481 16.53125,-5.3125 4.20793,-2.44331 6.81239,-7.17101 6.8125,-12.09375 -1.2e-4,-4.1743 -1.7758,-8.13714 -4.5625,-12.21875 -0.008,-0.0127 -0.0228,-0.0186 -0.0312,-0.0312 -2.76018,-4.13153 -5.92763,-7.51096 -9.625,-9.9375 -2.99993,-1.96533 -5.83215,-3.3547 -8.65625,-4.125 -0.0738,-0.0201 -0.14496,-0.0745 -0.21875,-0.0937 l 0,0.0312 c -2.86478,-0.88112 -6.52915,-1.36373 -11.71875,-1.75 -0.0265,-0.002 -0.0361,0.002 -0.0625,0 -3.38319,-0.28895 -5.98696,-0.46866 -7.96875,-0.46875 z m 289.34375,1.875 a 4.6733646,4.6733646 0 0 0 -0.4375,0.0312 L 839.5,555.9375 a 4.6733646,4.6733646 0 0 0 -0.53125,0.0937 c -8.94337,1.91651 -16.69462,6.36648 -22.78125,13.09375 -5.80208,6.41288 -9.43752,11.90041 -9.4375,17.96875 -10e-6,5.75341 3.60314,10.77673 8.96875,14.71875 4.95013,3.63688 9.06401,5.97167 13.1875,6.8125 0.0102,0.002 0.0521,0.029 0.0625,0.0312 1.21756,0.26201 3.94414,1.17145 7.65625,2.65625 a 4.6733646,4.6733646 0 0 0 0.0937,0.0312 c 3.93212,1.47459 7.61038,2.6906 11,3.6875 a 4.6733646,4.6733646 0 0 0 0.0312,0.0312 c 1.41919,0.40552 2.22778,0.91531 2.84375,1.53125 a 4.6733646,4.6733646 0 0 0 0.125,0.125 c 0.72701,0.67512 1.13895,1.24162 1.28125,1.40625 -0.0936,0.39934 -0.95322,3.12186 -3.8125,6.90625 a 4.6733646,4.6733646 0 0 0 -0.0312,0 c -2.61386,3.48509 -4.63564,4.4375 -6.78125,4.4375 -2.20174,0 -4.7989,-0.57937 -7.8125,-2.03125 -3.08214,-1.5827 -4.57124,-3.14167 -4.90625,-3.78125 a 4.6733646,4.6733646 0 0 0 -0.0312,-0.0625 c -2.2276,-4.10342 -5.83696,-7.49996 -10.40625,-7.5 -2.75239,4e-5 -5.40561,1.70647 -6.90625,3.78125 l -0.0312,-0.0312 c -0.0283,0.0377 -0.0348,0.0869 -0.0625,0.125 -0.008,0.0115 -0.0233,0.0197 -0.0312,0.0312 -1.42524,1.97536 -2.12501,4.44358 -2.125,6.8125 -10e-6,3.50137 1.14488,6.98797 3.09375,10.3125 a 4.6733646,4.6733646 0 0 0 0.0312,0.0625 c 1.95674,3.2229 4.42658,5.82268 7.53125,7.375 a 4.6733646,4.6733646 0 0 0 0.1875,0.0937 c 3.18462,1.41538 7.13182,2.3842 12.03125,3.1875 0.0243,0.004 0.0381,0.0273 0.0625,0.0312 l 0,-0.0312 c 4.94381,0.8874 9.00876,1.37499 12.40625,1.375 5.40785,-10e-6 10.59815,-2.35943 15.125,-6.3125 0.0225,-0.0196 0.0401,-0.0428 0.0625,-0.0625 4.20772,-3.60318 7.33564,-7.29106 9.09375,-11.375 0.0145,-0.0336 0.0482,-0.0601 0.0625,-0.0937 l -0.0312,0 c 1.90216,-4.28967 2.84367,-9.02958 2.84375,-14.0625 -9e-5,-6.33174 -2.70627,-12.15461 -7.625,-15.84375 -4.79163,-3.59363 -12.05735,-6.45378 -22.375,-9.5 a 4.6733646,4.6733646 0 0 0 0,-0.0312 c -3.41893,-0.98964 -6.3433,-2.08317 -8.6875,-3.25 -0.0303,-0.0157 -0.0325,-0.0156 -0.0625,-0.0312 -1.91004,-0.99487 -2.94638,-1.7103 -3.78125,-2.3125 0.46557,-0.55947 0.90325,-1.09085 1.78125,-1.9375 a 4.6733646,4.6733646 0 0 0 0.0625,-0.0625 c 2.2354,-2.23538 5.47524,-4.5385 9.78125,-6.78125 a 4.6733646,4.6733646 0 0 0 0.0312,-0.0312 c 4.18468,-2.2204 7.92793,-3.18744 11.34375,-3.1875 2.02263,4e-5 3.17722,0.49455 4.5,1.9375 a 4.6733646,4.6733646 0 0 0 0.125,0.15625 c 2.72887,2.72902 6.03997,4.68761 9.78125,4.6875 2.01247,5e-5 4.32616,-0.5671 6.0625,-2.25 1.73634,-1.6829 2.37494,-4.04865 2.375,-6.0625 -1.9e-4,-4.68853 -2.57333,-7.24756 -6.0625,-11.25 -2.15461,-2.46226 -4.0005,-4.23738 -6.5,-5.375 l 0.0312,-0.0625 c -0.0688,-0.0344 -0.14954,-0.0295 -0.21875,-0.0625 -0.0119,-0.006 -0.0193,-0.0256 -0.0312,-0.0312 -2.31505,-1.09484 -4.82883,-1.43741 -7.75,-1.4375 z M 572.75,572.625 c 2.05247,6e-5 3.3798,0.33636 3.53125,0.40625 a 4.6733646,4.6733646 0 0 0 0.125,0.0312 c 0.38953,0.16697 2.64094,1.57457 5.625,3.8125 0.85535,0.64154 1.18754,0.94456 1.84375,1.46875 -12.78858,2.52074 -22.6506,3.75444 -30.8125,4.28125 1.53709,-1.70904 2.87618,-3.24885 5.25,-5.5625 2.16126,-2.0781 3.95299,-3.13376 5.15625,-3.5 a 4.6733646,4.6733646 0 0 0 0.0937,-0.0312 c 1.38528,-0.46172 4.63939,-0.90618 9.1875,-0.90625 z m 110.15625,0.34375 a 4.6733646,4.6733646 0 0 0 0.40625,0.34375 c 0.006,0.005 0.0521,0.0846 0.0625,0.0937 -0.41194,-0.22956 -0.49049,-0.45923 -0.46875,-0.4375 z" />
        <text
           xml:space="preserve"
           style="font-size:144px;font-style:normal;font-variant:normal;font-weight:bold;font-stretch:normal;text-align:start;line-height:125%;writing-mode:lr-tb;text-anchor:start;fill:#aa0000;fill-opacity:1;stroke:none;font-family:Purisa;-inkscape-font-specification:Purisa Bold"
           x="-85.981308"
           y="636.47437"
           id="text3671"
           sodipodi:linespacing="125%"><tspan
             sodipodi:role="line"
             id="tspan3673"
             x="-85.981308"
             y="636.47437">ZIS Events</tspan></text>
      </g>
    </g>
    <path
       sodipodi:type="arc"
       style="fill:#7eff7e;fill-opacity:1;stroke:#618fc3;stroke-width:5;stroke-miterlimit:4;stroke-opacity:1;stroke-dasharray:none"
       id="path3611"
       sodipodi:cx="33.17757"
       sodipodi:cy="536.4743"
       sodipodi:rx="52.803738"
       sodipodi:ry="49.532711"
       d="m 85.981308,536.4743 a 52.803738,49.532711 0 1 1 -105.607475,0 52.803738,49.532711 0 1 1 105.607475,0 z" />
  </g>
</svg>
